<svg width="21" height="56" viewBox="0 0 21 56" fill="none" xmlns="http://www.w3.org/2000/svg">
<path d="M0.864233 44.7985C1.11241 44.5504 1.42826 44.4204 1.8118 44.4087C2.19534 44.3979 2.51119 44.5165 2.75936 44.7647L9.39232 51.3977L9.39232 1.35366C9.39232 0.970126 9.52228 0.648405 9.78218 0.388502C10.0412 0.1295 10.3624 -4.64982e-07 10.746 -4.48217e-07C11.1295 -4.31452e-07 11.4512 0.1295 11.7112 0.388502C11.9702 0.648405 12.0997 0.970126 12.0997 1.35366L12.0997 51.3977L18.7326 44.7647C18.9808 44.5165 19.2966 44.3979 19.6802 44.4087C20.0637 44.4204 20.3796 44.5504 20.6277 44.7985C20.8759 45.0467 21 45.3626 21 45.7461C21 46.1296 20.8759 46.4455 20.6277 46.6937L11.6936 55.6279C11.5807 55.7632 11.44 55.8593 11.2712 55.9162C11.1015 55.9721 10.9265 56.0001 10.746 56.0001C10.5655 56.0001 10.3963 55.9721 10.2384 55.9162C10.0804 55.8593 9.93379 55.7632 9.79842 55.6279L0.864233 46.6937C0.61606 46.4455 0.491974 46.1296 0.491974 45.7461C0.491974 45.3626 0.61606 45.0467 0.864233 44.7985Z" fill="url(#paint0_linear_2104_26)"/>
<defs>
<linearGradient id="paint0_linear_2104_26" x1="-0.336406" y1="-2.27273" x2="34.2848" y2="50.4284" gradientUnits="userSpaceOnUse">
<stop stop-color="#94DF73"/>
<stop offset="0.300305" stop-color="#71DEA9"/>
<stop offset="0.648038" stop-color="#3DD8E9"/>
<stop offset="0.975" stop-color="#3A80EB"/>
</linearGradient>
</defs>
</svg>
