<svg width="222" height="36" viewBox="0 0 222 36" fill="none" xmlns="http://www.w3.org/2000/svg">
<path d="M24.5366 13.8018C24.5366 21.8327 18.6042 27.6843 10.4926 27.6843H0V0H10.4926C18.6446 0 24.5366 5.81129 24.5366 13.8018ZM18.4024 13.8018C18.4024 8.91872 15.0932 5.5288 10.3312 5.5288H6.01307V22.1152H10.3312C15.0932 22.1152 18.4024 18.6446 18.4024 13.8018Z" fill="white"/>
<path d="M49.1545 18.6444H32.9717C33.4559 21.5501 35.393 23.1643 38.1776 23.1643C40.1954 23.1643 41.85 22.1958 42.6975 20.7026H48.7509C47.177 25.3436 43.1011 28.3299 38.1373 28.3299C31.8417 28.3299 27.0393 23.4468 27.0393 17.0302C27.0393 10.6136 31.761 5.73047 38.1373 5.73047C44.5135 5.73047 49.1948 10.775 49.1948 16.9495C49.1948 17.5145 49.1948 18.0795 49.0738 18.6444H49.1545ZM33.1331 14.6895H43.5046C42.6975 12.0664 40.8008 10.6539 38.218 10.6539C35.6352 10.6539 33.8191 12.1471 33.1331 14.6895Z" fill="white"/>
<path d="M84.8281 14.286V27.6843H79.0571V15.2546C79.0571 12.3893 77.9272 10.8961 75.8287 10.8961C73.2459 10.8961 71.7123 12.7928 71.7123 16.1424V27.6843H66.0625V15.2546C66.0625 12.3893 64.9728 10.8961 62.9147 10.8961C60.2915 10.8961 58.758 12.7928 58.758 16.1424V27.6843H52.9871V6.33584H57.0227L58.1123 8.99934C59.6458 7.1026 61.9865 5.85156 64.4886 5.85156C67.1924 5.85156 69.4524 7.14296 70.7034 9.28184C72.1562 7.22367 74.618 5.85156 77.3218 5.85156C81.761 5.85156 84.8281 9.3222 84.8281 14.3264V14.286Z" fill="white"/>
<path d="M88.2993 17.0302C88.2993 10.5329 93.2228 5.73047 99.8412 5.73047C106.46 5.73047 111.383 10.5329 111.383 17.0302C111.383 23.5275 106.419 28.3299 99.8412 28.3299C93.2631 28.3299 88.2993 23.4872 88.2993 17.0302ZM105.531 17.0302C105.531 13.5596 103.15 11.1786 99.8412 11.1786C96.532 11.1786 94.151 13.5596 94.151 17.0302C94.151 20.5008 96.532 22.8818 99.8412 22.8818C103.15 22.8818 105.531 20.5008 105.531 17.0302Z" fill="white"/>
<path d="M122.723 28.2897C117.355 28.2897 113.764 25.2227 113.764 20.6624H119.414C119.414 22.5592 120.907 23.5277 122.965 23.5277C124.579 23.5277 125.992 22.8013 125.992 21.3888C125.992 19.9764 124.135 19.4921 121.875 19.1289C118.445 18.5639 114.127 17.6357 114.127 12.5912C114.127 8.55557 117.557 5.771 122.723 5.771C127.888 5.771 131.278 8.63628 131.278 12.914H125.79C125.79 11.2191 124.579 10.3716 122.561 10.3716C120.745 10.3716 119.696 11.1787 119.696 12.4298C119.696 13.8422 121.512 14.1651 123.732 14.5686C127.202 15.174 131.682 15.9408 131.682 21.1467C131.682 25.5052 128.13 28.3301 122.723 28.3301V28.2897Z" fill="white"/>
<path d="M167.357 14.286V27.6843H161.586V15.2546C161.586 12.3893 160.456 10.8961 158.358 10.8961C155.775 10.8961 154.242 12.7928 154.242 16.1424V27.6843H148.592V15.2546C148.592 12.3893 147.502 10.8961 145.444 10.8961C142.821 10.8961 141.287 12.7928 141.287 16.1424V27.6843H135.516V6.33584H139.552L140.642 8.99934C142.175 7.1026 144.516 5.85156 147.018 5.85156C149.722 5.85156 151.982 7.14296 153.233 9.28184C154.686 7.22367 157.147 5.85156 159.851 5.85156C164.29 5.85156 167.357 9.3222 167.357 14.3264V14.286Z" fill="white"/>
<path d="M193.992 6.29528V27.6437H189.472L188.988 25.747C187.172 27.3612 184.751 28.2894 182.047 28.2894C175.63 28.2894 170.828 23.4467 170.828 16.9493C170.828 10.452 175.59 5.68994 182.047 5.68994C184.791 5.68994 187.213 6.65849 189.069 8.31309L189.674 6.25493H193.992V6.29528ZM188.342 16.9897C188.342 13.6401 185.881 11.138 182.531 11.138C179.182 11.138 176.72 13.6401 176.72 16.9897C176.72 20.3392 179.182 22.8413 182.531 22.8413C185.881 22.8413 188.342 20.3392 188.342 16.9897Z" fill="white"/>
<path d="M222 17.0304C222 23.4874 217.238 28.3705 210.821 28.3705C208.602 28.3705 206.584 27.7248 204.929 26.5544V35.4328H199.158V6.37634H202.992L203.961 8.31343C205.777 6.69918 208.158 5.771 210.821 5.771C217.238 5.771 222 10.5734 222 17.0707V17.0304ZM216.148 17.0304C216.148 13.6808 213.687 11.1787 210.337 11.1787C206.988 11.1787 204.526 13.6808 204.526 17.0304C204.526 20.3799 206.988 22.882 210.337 22.882C213.687 22.882 216.148 20.3799 216.148 17.0304Z" fill="white"/>
</svg>
