<svg width="21" height="24" viewBox="0 0 21 24" fill="none" xmlns="http://www.w3.org/2000/svg">
<path d="M11.4427 0.718274C10.8859 0.293984 10.1141 0.293984 9.55727 0.718273L0.612822 7.53309C0.226658 7.82731 0 8.28495 0 8.77043V22.4444C0 23.3036 0.696446 24 1.55556 24H5.00694C5.86605 24 6.5625 23.3036 6.5625 22.4444V16.2222C6.5625 15.3631 7.25895 14.6667 8.11806 14.6667H12.8819C13.7411 14.6667 14.4375 15.3631 14.4375 16.2222V22.4444C14.4375 23.3036 15.1339 24 15.9931 24H19.4444C20.3036 24 21 23.3036 21 22.4444V8.77043C21 8.28495 20.7733 7.82731 20.3872 7.53309L11.4427 0.718274Z" fill="white"/>
</svg>
