<svg width="28" height="28" viewBox="0 0 28 28" fill="none" xmlns="http://www.w3.org/2000/svg">
<path d="M23.8699 4.074C21.2519 1.442 17.7659 0 14.0559 0C6.41195 0 0.181947 6.23 0.181947 13.874C0.181947 16.324 0.825946 18.704 2.02995 20.804L0.0699463 28L7.41995 26.068C9.44995 27.174 11.7319 27.762 14.0559 27.762C21.6999 27.762 27.9299 21.532 27.9299 13.888C27.9299 10.178 26.4879 6.692 23.8699 4.074ZM14.0559 25.41C11.9839 25.41 9.95395 24.85 8.17595 23.8L7.75595 23.548L3.38795 24.696L4.54995 20.44L4.26995 20.006C3.12195 18.172 2.50595 16.044 2.50595 13.874C2.50595 7.518 7.68595 2.338 14.0419 2.338C17.1219 2.338 20.0199 3.542 22.1899 5.726C24.3739 7.91 25.5639 10.808 25.5639 13.888C25.5919 20.244 20.4119 25.41 14.0559 25.41ZM20.3839 16.786C20.0339 16.618 18.3259 15.778 18.0179 15.652C17.6959 15.54 17.4719 15.484 17.2339 15.82C16.9959 16.17 16.3379 16.954 16.1419 17.178C15.9459 17.416 15.7359 17.444 15.3859 17.262C15.0359 17.094 13.9159 16.716 12.5999 15.54C11.5639 14.616 10.8779 13.482 10.6679 13.132C10.4719 12.782 10.6399 12.6 10.8219 12.418C10.9759 12.264 11.1719 12.012 11.3399 11.816C11.5079 11.62 11.5779 11.466 11.6899 11.242C11.8019 11.004 11.7459 10.808 11.6619 10.64C11.5779 10.472 10.8779 8.764 10.5979 8.064C10.3179 7.392 10.0239 7.476 9.81395 7.462C9.60395 7.462 9.37995 7.462 9.14195 7.462C8.90395 7.462 8.53995 7.546 8.21795 7.896C7.90995 8.246 7.01395 9.086 7.01395 10.794C7.01395 12.502 8.25995 14.154 8.42795 14.378C8.59595 14.616 10.8779 18.116 14.3499 19.614C15.1759 19.978 15.8199 20.188 16.3239 20.342C17.1499 20.608 17.9059 20.566 18.5079 20.482C19.1799 20.384 20.5659 19.642 20.8459 18.83C21.1399 18.018 21.1399 17.332 21.0419 17.178C20.9439 17.024 20.7339 16.954 20.3839 16.786Z" fill="white"/>
</svg>
