<svg width="146" height="24" viewBox="0 0 146 24" fill="none" xmlns="http://www.w3.org/2000/svg">
<path d="M16.3157 9.68302C16.3157 14.9573 12.4196 18.8004 7.09225 18.8004H0.201172V0.618603H7.09225C12.4461 0.618603 16.3157 4.4352 16.3157 9.68302ZM12.2871 9.68302C12.2871 6.47602 10.1137 4.24967 6.98623 4.24967H4.15029V15.1429H6.98623C10.1137 15.1429 12.2871 12.8635 12.2871 9.68302Z" fill="white"/>
<path d="M32.4835 12.8635H21.8553C22.1734 14.7718 23.4456 15.8319 25.2744 15.8319C26.5996 15.8319 27.6862 15.1958 28.2428 14.2152H32.2184C31.1848 17.2632 28.5079 19.2245 25.2479 19.2245C21.1132 19.2245 17.9592 16.0175 17.9592 11.8033C17.9592 7.58915 21.0602 4.38214 25.2479 4.38214C29.4355 4.38214 32.51 7.69516 32.51 11.7503C32.51 12.1214 32.51 12.4924 32.4305 12.8635H32.4835ZM21.9613 10.2661H28.7729C28.2428 8.54329 26.9971 7.61565 25.3009 7.61565C23.6046 7.61565 22.4119 8.5963 21.9613 10.2661Z" fill="white"/>
<path d="M55.9125 10.001V18.8004H52.1224V10.6371C52.1224 8.75534 51.3803 7.77468 50.0021 7.77468C48.3058 7.77468 47.2986 9.02038 47.2986 11.2202V18.8004H43.5881V10.6371C43.5881 8.75534 42.8725 7.77468 41.5207 7.77468C39.798 7.77468 38.7908 9.02038 38.7908 11.2202V18.8004H35.0007V4.77972H37.6511L38.3668 6.52899C39.3739 5.28329 40.9111 4.46167 42.5544 4.46167C44.3302 4.46167 45.8144 5.3098 46.636 6.71452C47.5902 5.36281 49.2069 4.46167 50.9827 4.46167C53.8982 4.46167 55.9125 6.74102 55.9125 10.0275V10.001Z" fill="white"/>
<path d="M58.1919 11.8033C58.1919 7.53614 61.4254 4.38214 65.7721 4.38214C70.1188 4.38214 73.3523 7.53614 73.3523 11.8033C73.3523 16.0705 70.0923 19.2245 65.7721 19.2245C61.4519 19.2245 58.1919 16.044 58.1919 11.8033ZM69.5092 11.8033C69.5092 9.52395 67.9454 7.9602 65.7721 7.9602C63.5987 7.9602 62.035 9.52395 62.035 11.8033C62.035 14.0827 63.5987 15.6464 65.7721 15.6464C67.9454 15.6464 69.5092 14.0827 69.5092 11.8033Z" fill="white"/>
<path d="M80.7999 19.198C77.2749 19.198 74.916 17.1837 74.916 14.1887H78.6266C78.6266 15.4344 79.6073 16.0705 80.959 16.0705C82.0191 16.0705 82.9468 15.5934 82.9468 14.6658C82.9468 13.7381 81.7276 13.4201 80.2434 13.1815C77.9905 12.8105 75.1546 12.2009 75.1546 8.88787C75.1546 6.23746 77.4074 4.40868 80.7999 4.40868C84.1925 4.40868 86.4188 6.29047 86.4188 9.09991H82.8142C82.8142 7.98673 82.0191 7.43015 80.6939 7.43015C79.5012 7.43015 78.8121 7.96023 78.8121 8.78186C78.8121 9.7095 80.0048 9.92153 81.4625 10.1866C83.7419 10.5841 86.6839 11.0877 86.6839 14.5067C86.6839 17.3692 84.3515 19.2245 80.7999 19.2245V19.198Z" fill="white"/>
<path d="M110.114 10.001V18.8004H106.324V10.6371C106.324 8.75534 105.582 7.77468 104.204 7.77468C102.507 7.77468 101.5 9.02038 101.5 11.2202V18.8004H97.7897V10.6371C97.7897 8.75534 97.0741 7.77468 95.7224 7.77468C93.9996 7.77468 92.9925 9.02038 92.9925 11.2202V18.8004H89.2024V4.77972H91.8528L92.5684 6.52899C93.5756 5.28329 95.1128 4.46167 96.7561 4.46167C98.5319 4.46167 100.016 5.3098 100.838 6.71452C101.792 5.36281 103.409 4.46167 105.184 4.46167C108.1 4.46167 110.114 6.74102 110.114 10.0275V10.001Z" fill="white"/>
<path d="M127.607 4.75324V18.7739H124.638L124.32 17.5282C123.128 18.5884 121.537 19.198 119.762 19.198C115.548 19.198 112.394 16.0175 112.394 11.7503C112.394 7.48316 115.521 4.35567 119.762 4.35567C121.564 4.35567 123.154 4.99177 124.373 6.07844L124.771 4.72673H127.607V4.75324ZM123.896 11.7768C123.896 9.57699 122.28 7.93373 120.08 7.93373C117.88 7.93373 116.263 9.57699 116.263 11.7768C116.263 13.9767 117.88 15.6199 120.08 15.6199C122.28 15.6199 123.896 13.9767 123.896 11.7768Z" fill="white"/>
<path d="M146.001 11.8033C146.001 16.044 142.873 19.251 138.659 19.251C137.201 19.251 135.876 18.8269 134.79 18.0583V23.8892H131V4.80624H133.517L134.153 6.07843C135.346 5.01827 136.91 4.40868 138.659 4.40868C142.873 4.40868 146.001 7.56267 146.001 11.8298V11.8033ZM142.158 11.8033C142.158 9.60349 140.541 7.96023 138.341 7.96023C136.141 7.96023 134.525 9.60349 134.525 11.8033C134.525 14.0032 136.141 15.6464 138.341 15.6464C140.541 15.6464 142.158 14.0032 142.158 11.8033Z" fill="white"/>
</svg>
